<svg width="21" height="21" fill="none" xmlns="http://www.w3.org/2000/svg"><path d="M11.526 0v2.124a8.408 8.408 0 0 1 7.326 9.38c-.484 3.828-3.495 6.867-7.326 7.32v2.102c5.79-.578 10-5.71 9.42-11.493C20.474 4.438 16.506.494 11.527 0ZM9.421.032c-2.053.2-4.01.988-5.61 2.313l1.505 1.556A8.42 8.42 0 0 1 9.42 2.135V.032ZM2.326 3.828C1 5.426.211 7.372 0 9.433h2.105c.2-1.494.79-2.913 1.726-4.101L2.326 3.828Zm11.832 2.976L9.02 11.935 6.789 9.706l-1.115 1.115 3.347 3.344 6.252-6.247-1.115-1.114ZM.01 11.536a10.552 10.552 0 0 0 2.326 5.605l1.494-1.504a8.411 8.411 0 0 1-1.715-4.101H.01Zm5.305 5.647-1.506 1.44A10.525 10.525 0 0 0 9.42 21v-2.103a8.427 8.427 0 0 1-4.104-1.714Z" fill="#6D95FC"/></svg>