<svg width="33" height="45" fill="none" xmlns="http://www.w3.org/2000/svg"><path d="M16.5 21.375a5.76 5.76 0 0 1-4.04-1.648 5.581 5.581 0 0 1-1.674-3.977c0-1.492.602-2.923 1.673-3.977a5.76 5.76 0 0 1 4.041-1.648 5.76 5.76 0 0 1 4.04 1.648 5.581 5.581 0 0 1 1.674 3.977c0 .739-.147 1.47-.435 2.153a5.621 5.621 0 0 1-1.238 1.825c-.531.522-1.16.936-1.854 1.219a5.793 5.793 0 0 1-2.187.428ZM16.5 0A16.13 16.13 0 0 0 5.186 4.613C2.186 7.567.5 11.573.5 15.75.5 27.563 16.5 45 16.5 45s16-17.438 16-29.25c0-4.177-1.686-8.183-4.686-11.137A16.13 16.13 0 0 0 16.5 0Z" fill="#6D95FC"/></svg>