<svg width="96" height="95" fill="none" xmlns="http://www.w3.org/2000/svg"><path d="M30.379 67.42h-13.79a.767.767 0 0 1-.767-.766v-9.193a.767.767 0 0 1 1.533 0v8.427h13.024a.767.767 0 0 1 0 1.532Z" fill="#6D95FC"/><path d="M90.136 67.42H50.297a.767.767 0 0 1 0-1.532H89.37V27.58H51.828a.767.767 0 0 1 0-1.532h38.307c.422 0 .766.343.766.766v39.839a.767.767 0 0 1-.766.766h.001ZM41.103 91.936a.767.767 0 0 1-.748-.933l3.065-13.79a.767.767 0 0 1 1.497.332l-3.064 13.79a.77.77 0 0 1-.75.601ZM65.62 91.936a.766.766 0 0 1-.748-.6l-3.065-13.791a.766.766 0 1 1 1.497-.332l3.065 13.79a.766.766 0 0 1-.75.933Z" fill="#fff"/><path d="M74.813 78.146H16.165c-2.725 0-4.94-2.246-4.94-5.01V57.462a.767.767 0 0 1 1.532 0v15.676c0 1.917 1.527 3.477 3.408 3.477h58.648a.767.767 0 0 1 0 1.532ZM90.56 78.146h-3.488a.767.767 0 0 1 0-1.532h3.487c1.88 0 3.408-1.56 3.408-3.477V26.46c0-1.917-1.527-3.477-3.408-3.477H51.831a.767.767 0 0 1 0-1.532h38.728c2.725 0 4.94 2.246 4.94 5.01v46.675c0 2.762-2.215 5.009-4.94 5.009Z" fill="#fff"/><path d="M83.242 95h-4.596a4.602 4.602 0 0 1-4.597-4.596v-13.79a4.602 4.602 0 0 1 4.597-4.597h4.596a4.602 4.602 0 0 1 4.597 4.596v13.79a4.602 4.602 0 0 1-4.597 4.598ZM78.646 73.55a3.067 3.067 0 0 0-3.065 3.064v13.79a3.067 3.067 0 0 0 3.065 3.065h4.596a3.067 3.067 0 0 0 3.065-3.064v-13.79a3.067 3.067 0 0 0-3.065-3.065h-4.596Z" fill="#fff"/><path d="M80.942 81.21a.767.767 0 0 1-.766-.766v-3.065a.767.767 0 0 1 1.532 0v3.065a.767.767 0 0 1-.766.766ZM68.684 95.001H38.039a2.302 2.302 0 0 1-2.299-2.298 2.302 2.302 0 0 1 2.299-2.299h30.645a2.302 2.302 0 0 1 2.298 2.299A2.302 2.302 0 0 1 68.684 95Zm-30.645-3.064a.768.768 0 0 0-.767.766c0 .422.345.766.767.766h30.645a.768.768 0 0 0 .766-.766.768.768 0 0 0-.766-.766H38.039ZM51.831 58.226H1.266A.767.767 0 0 1 .5 57.46V.766C.5.343.843 0 1.266 0h50.565c.423 0 .766.343.766.766V57.46a.767.767 0 0 1-.766.766Zm-49.8-1.532h49.033V1.532H2.031v55.162ZM87.072 18.387H62.555a.766.766 0 0 1-.766-.766V3.831c0-.423.343-.767.766-.767h24.517c.422 0 .766.344.766.767v13.79a.766.766 0 0 1-.766.766Zm-23.75-1.532h22.984V4.597H63.322v12.258Z" fill="#fff"/><path d="M85.541 38.307H56.428a.767.767 0 0 1-.766-.766v-6.13c0-.422.343-.766.766-.766h29.113c.423 0 .767.344.767.767v6.129a.767.767 0 0 1-.767.766Zm-28.347-1.532h27.58v-4.597h-27.58v4.597ZM65.62 53.63h-9.194a.767.767 0 0 1-.766-.767v-6.13c0-.422.344-.765.766-.765h9.194c.423 0 .766.343.766.766v6.129a.767.767 0 0 1-.766.766Zm-8.428-1.533h7.662V47.5h-7.662v4.597ZM85.54 53.63H70.217a.767.767 0 0 1-.766-.767v-6.13c0-.422.344-.765.766-.765H85.54c.423 0 .766.343.766.766v6.129a.767.767 0 0 1-.766.766Zm-14.557-1.533h13.79V47.5h-13.79v4.597ZM85.541 62.823H21.186a.767.767 0 0 1 0-1.532h64.355a.767.767 0 0 1 0 1.532ZM85.541 58.227H56.428a.767.767 0 0 1 0-1.533h29.113a.767.767 0 0 1 0 1.533ZM85.541 42.903H56.428a.767.767 0 0 1 0-1.532h29.113a.767.767 0 0 1 0 1.532ZM10.458 13.79a3.835 3.835 0 0 1-3.831-3.83 3.835 3.835 0 0 1 3.83-3.831 3.835 3.835 0 0 1 3.831 3.83 3.835 3.835 0 0 1-3.83 3.831Zm0-6.129A2.302 2.302 0 0 0 8.159 9.96a2.302 2.302 0 0 0 2.299 2.298 2.302 2.302 0 0 0 2.298-2.298 2.302 2.302 0 0 0-2.298-2.299ZM13.522 18.387H7.393a.767.767 0 0 1 0-1.532h6.13a.767.767 0 0 1 0 1.532ZM30.379 18.387h-7.662a.767.767 0 0 1 0-1.532h7.662a.767.767 0 0 1 0 1.532ZM42.637 13.79a3.835 3.835 0 0 1-3.83-3.83 3.835 3.835 0 0 1 3.83-3.831 3.835 3.835 0 0 1 3.831 3.83 3.835 3.835 0 0 1-3.83 3.831Zm0-6.129A2.302 2.302 0 0 0 40.34 9.96a2.302 2.302 0 0 0 2.298 2.298 2.302 2.302 0 0 0 2.299-2.298 2.302 2.302 0 0 0-2.299-2.299ZM45.702 18.387h-6.13a.767.767 0 0 1 0-1.532h6.13a.767.767 0 0 1 0 1.532ZM30.379 13.79h-7.662a.767.767 0 0 1-.766-.766V6.895c0-.423.344-.766.766-.766h7.662c.422 0 .766.343.766.766v6.13a.767.767 0 0 1-.766.765Zm-6.896-1.532h6.13V7.661h-6.13v4.597ZM45.702 33.71H7.395a.767.767 0 0 1 0-1.532h38.307a.767.767 0 0 1 0 1.532ZM45.702 52.097H7.395a.767.767 0 0 1 0-1.532h38.307a.767.767 0 0 1 0 1.532Z" fill="#6D95FC"/><path d="M79.413 9.193h-3.065a.767.767 0 0 1 0-1.532h3.065a.767.767 0 0 1 0 1.532ZM82.477 13.79h-6.129a.767.767 0 0 1 0-1.532h6.13a.767.767 0 0 1 0 1.532ZM73.282 13.79h-6.13a.767.767 0 0 1-.765-.766V8.427c0-.422.343-.766.766-.766h6.129c.423 0 .766.344.766.766v4.597a.767.767 0 0 1-.766.766Zm-5.363-1.532h4.597V9.193h-4.597v3.065Z" fill="#fff"/><path d="M42.636 67.42h-7.66a.767.767 0 0 1 0-1.532h7.66a.767.767 0 0 1 0 1.532Z" fill="#6D95FC"/></svg>