<svg width="101" height="97" fill="none" xmlns="http://www.w3.org/2000/svg"><path d="M48.77 31.187c-.43 0-.86-.109-1.253-.326l1.253.326Zm0 0c.43 0 .86-.109 1.252-.326l3.636-2.01c.784-.434 1.253-1.212 1.253-2.08 0-.87-.469-1.646-1.253-2.08l-3.636-2.01-1.252 8.506Zm-.173-6.712a.348.348 0 0 1 .346 0l3.636 2.01c.15.084.172.215.172.286a.315.315 0 0 1-.172.286l-3.636 2.01a.348.348 0 0 1-.346 0 .317.317 0 0 1-.173-.285V24.76c0-.165.107-.25.173-.285Z" fill="#6D95FC" stroke="#fff" stroke-width=".05"/><path d="M39.916 26.772c0 5.638 4.789 10.223 10.672 10.223 5.883 0 10.672-4.585 10.672-10.223 0-5.639-4.789-10.224-10.672-10.224-5.883 0-10.672 4.585-10.672 10.224Zm2.16 0c0-4.494 3.818-8.152 8.512-8.152 4.694 0 8.511 3.657 8.511 8.152 0 4.494-3.817 8.152-8.511 8.152-4.694 0-8.511-3.658-8.511-8.152Z" fill="#6D95FC" stroke="#fff" stroke-width=".05"/><path d="M17.881 52.568h65.414c.596 0 1.08-.463 1.08-1.036V2.01c0-.573-.484-1.036-1.08-1.036H17.881c-.595 0-1.08.463-1.08 1.036v49.52c0 .574.485 1.037 1.08 1.037ZM82.215 3.046v47.45H18.961V3.046h63.254Z" fill="#6D95FC" stroke="#fff" stroke-width=".05"/><path d="M24.211 14.163h8.44c.596 0 1.08-.463 1.08-1.036V8.074c0-.573-.484-1.036-1.08-1.036h-8.44c-.595 0-1.08.463-1.08 1.036v5.053c0 .573.485 1.036 1.08 1.036Zm7.36-5.053v2.982h-6.28V9.11h6.28ZM38.983 14.163h8.44c.596 0 1.08-.463 1.08-1.036V8.074c0-.573-.484-1.036-1.08-1.036h-8.44c-.596 0-1.08.463-1.08 1.036v5.053c0 .573.484 1.036 1.08 1.036Zm7.36-5.053v2.982h-6.28V9.11h6.28Z" fill="#6D95FC" stroke="#fff" stroke-width=".05"/><path d="M8.315 79.856h84.546c4.046 0 7.34-3.154 7.34-7.033v-6.13c0-.574-.485-1.036-1.08-1.036H2.055c-.595 0-1.08.462-1.08 1.035v6.131c0 3.879 3.294 7.033 7.34 7.033Zm-5.18-7.033v-5.095h94.906v5.095c0 2.735-2.323 4.961-5.18 4.961H8.315c-2.857 0-5.18-2.226-5.18-4.96Z" fill="#fff" stroke="#6D95FC" stroke-width=".05"/><path d="M2.055 67.727h97.066c.595 0 1.08-.462 1.08-1.035V21.516c0-4.64-3.94-8.413-8.782-8.413h-8.124c-.596 0-1.08.463-1.08 1.036 0 .572.484 1.035 1.08 1.035h8.124c3.652 0 6.622 2.846 6.622 6.342v44.14H3.135v-44.14c0-3.496 2.97-6.342 6.622-6.342h8.124c.595 0 1.08-.463 1.08-1.035 0-.573-.485-1.036-1.08-1.036H9.757c-4.841 0-8.782 3.773-8.782 8.413v45.176c0 .573.485 1.035 1.08 1.035Z" fill="#fff" stroke="#6D95FC" stroke-width=".05"/><path d="M53.752 14.163h8.44c.596 0 1.08-.463 1.08-1.036V8.074c0-.573-.484-1.036-1.08-1.036h-8.44c-.595 0-1.08.463-1.08 1.036v5.053c0 .573.485 1.036 1.08 1.036Zm7.36-5.053v2.982h-6.28V9.11h6.28Z" fill="#6D95FC" stroke="#fff" stroke-width=".05"/><path d="M76.964 14.138h-8.44c-.583 0-1.055-.453-1.055-1.01V8.073c0-.558.472-1.01 1.055-1.01h8.44c.583 0 1.055.452 1.055 1.01v5.053c0 .558-.472 1.01-1.055 1.01Zm-7.385-2.021h6.33V9.085h-6.33v3.032ZM32.652 46.479h-8.44c-.583 0-1.056-.453-1.056-1.01v-5.054c0-.558.473-1.01 1.055-1.01h8.44c.583 0 1.056.452 1.056 1.01v5.053c0 .558-.473 1.01-1.055 1.01Zm-7.386-2.021h6.33v-3.032h-6.33v3.032ZM47.423 46.479h-8.44c-.583 0-1.055-.453-1.055-1.01v-5.054c0-.558.472-1.01 1.055-1.01h8.44c.583 0 1.055.452 1.055 1.01v5.053c0 .558-.472 1.01-1.055 1.01Zm-7.385-2.021h6.33v-3.032h-6.33v3.032ZM62.193 46.479h-8.44c-.584 0-1.056-.453-1.056-1.01v-5.054c0-.558.472-1.01 1.055-1.01h8.44c.584 0 1.056.452 1.056 1.01v5.053c0 .558-.472 1.01-1.055 1.01Zm-7.386-2.021h6.33v-3.032h-6.33v3.032ZM76.964 46.479h-8.44c-.583 0-1.055-.453-1.055-1.01v-5.054c0-.558.472-1.01 1.055-1.01h8.44c.583 0 1.055.452 1.055 1.01v5.053c0 .558-.472 1.01-1.055 1.01Zm-7.385-2.021h6.33v-3.032h-6.33v3.032Z" fill="#6D95FC" stroke="#6D95FC" stroke-width=".05"/><path d="M38.983 91.983h23.211c.596 0 1.08-.463 1.08-1.036V78.819c0-.573-.484-1.035-1.08-1.035H38.983c-.596 0-1.08.462-1.08 1.035v12.128c0 .573.484 1.035 1.08 1.035Zm22.131-12.128V89.91H40.063V79.855h21.051Z" fill="#fff" stroke="#6D95FC" stroke-width=".05"/><path d="M44.258 91.983h12.66c.596 0 1.081-.463 1.081-1.036V78.819c0-.573-.485-1.035-1.08-1.035h-12.66c-.596 0-1.08.462-1.08 1.035v12.128c0 .573.484 1.035 1.08 1.035Zm11.58-12.128V89.91h-10.5V79.855h10.5Z" fill="#fff" stroke="#6D95FC" stroke-width=".05"/><path d="M35.818 96.025h29.541c1.758 0 3.19-1.37 3.19-3.057 0-1.686-1.432-3.056-3.19-3.056H35.818c-1.758 0-3.19 1.37-3.19 3.056 0 1.687 1.431 3.057 3.19 3.057Zm-1.03-3.057c0-.542.46-.985 1.03-.985h29.541c.57 0 1.03.443 1.03.985 0 .543-.46.986-1.03.986H35.818c-.57 0-1.03-.443-1.03-.986Z" fill="#fff" stroke="#6D95FC" stroke-width=".05"/></svg>