<svg width="96" height="100" fill="none" xmlns="http://www.w3.org/2000/svg"><mask id="path-1-inside-1_74_157" fill="#fff"><path d="M88.493 83.509H7.507C3.643 83.509.5 80.411.5 76.602V70.56c0-.55.453-.996 1.01-.996h92.98c.558 0 1.01.445 1.01.996v6.043c0 3.809-3.144 6.907-7.007 6.907ZM2.52 71.555v5.047c0 2.71 2.237 4.915 4.986 4.915h80.986c2.75 0 4.986-2.205 4.986-4.915v-5.047H2.52Z"/></mask><path d="M88.493 83.509H7.507C3.643 83.509.5 80.411.5 76.602V70.56c0-.55.453-.996 1.01-.996h92.98c.558 0 1.01.445 1.01.996v6.043c0 3.809-3.144 6.907-7.007 6.907ZM2.52 71.555v5.047c0 2.71 2.237 4.915 4.986 4.915h80.986c2.75 0 4.986-2.205 4.986-4.915v-5.047H2.52Z" fill="#6D95FC"/><path d="M2.521 71.555v-4h-4v4h4Zm90.958 0h4v-4h-4v4Zm-4.986 7.954H7.507v8h80.986v-8Zm-80.986 0c-1.71 0-3.007-1.362-3.007-2.907h-8c0 6.072 4.989 10.907 11.007 10.907v-8ZM4.5 76.602V70.56h-8v6.043h8Zm0-6.043a2.997 2.997 0 0 1-2.99 3.004v-8c-2.712 0-5.01 2.182-5.01 4.996h8Zm-2.99 3.004h92.98v-8H1.51v8Zm92.98 0a2.997 2.997 0 0 1-2.99-3.004h8c0-2.814-2.298-4.996-5.01-4.996v8Zm-2.99-3.004v6.043h8V70.56h-8Zm0 6.043c0 1.545-1.298 2.907-3.007 2.907v8c6.018 0 11.007-4.835 11.007-10.907h-8Zm-92.979-5.047v5.047h8v-5.047h-8Zm0 5.047c0 4.973 4.082 8.915 8.986 8.915v-8c-.595 0-.986-.468-.986-.915h-8Zm8.986 8.915h80.986v-8H7.507v8Zm80.986 0c4.904 0 8.986-3.942 8.986-8.915h-8c0 .447-.391.915-.986.915v8Zm8.986-8.915v-5.047h-8v5.047h8Zm-4-9.047H2.52v8H93.48v-8Z" fill="#FBFBFB" mask="url('#path-1-inside-1_74_157')"/><mask id="path-3-inside-2_74_157" fill="#fff"><path d="M94.49 71.555H1.51c-.557 0-1.01-.446-1.01-.997V26.03c0-4.56 3.763-8.268 8.388-8.268h35.17c.559 0 1.012.446 1.012.996s-.453.996-1.011.996H8.889c-3.511 0-6.368 2.816-6.368 6.276v43.533H93.48V26.03c0-3.46-2.856-6.276-6.367-6.276H64.069c-.559 0-1.011-.446-1.011-.996s.452-.996 1.01-.996h23.044c4.625 0 8.388 3.709 8.388 8.268v44.53c0 .55-.452.996-1.01.996Z"/></mask><path d="M94.49 71.555H1.51c-.557 0-1.01-.446-1.01-.997V26.03c0-4.56 3.763-8.268 8.388-8.268h35.17c.559 0 1.012.446 1.012.996s-.453.996-1.011.996H8.889c-3.511 0-6.368 2.816-6.368 6.276v43.533H93.48V26.03c0-3.46-2.856-6.276-6.367-6.276H64.069c-.559 0-1.011-.446-1.011-.996s.452-.996 1.01-.996h23.044c4.625 0 8.388 3.709 8.388 8.268v44.53c0 .55-.452.996-1.01.996Z" fill="#6D95FC"/><path d="M2.521 69.562h-4v4h4v-4Zm90.958 0v4h4v-4h-4Zm1.01-2.007H1.511v8h92.978v-8Zm-92.978 0c1.596 0 2.989 1.29 2.989 3.003h-8c0 2.814 2.298 4.997 5.01 4.997v-8ZM4.5 70.558V26.03h-8v44.53h8Zm0-44.529c0-2.296 1.918-4.268 4.388-4.268v-8C2.108 13.76-3.5 19.207-3.5 26.029h8Zm4.388-4.268h35.17v-8H8.889v8Zm35.17 0a2.996 2.996 0 0 1-2.988-3.004h8c0-2.813-2.298-4.996-5.011-4.996v8Zm-2.988-3.004a2.996 2.996 0 0 1 2.989-3.004v8c2.713 0 5.01-2.183 5.01-4.996h-8Zm2.989-3.004H8.889v8h35.17v-8Zm-35.17 0c-5.666 0-10.368 4.552-10.368 10.276h8c0-1.197 1.011-2.276 2.367-2.276v-8ZM-1.48 26.03v43.533h8V26.03h-8Zm4 47.533H93.48v-8H2.52v8Zm94.958-4V26.03h-8v43.533h8Zm0-43.533c0-5.724-4.702-10.276-10.367-10.276v8c1.356 0 2.367 1.079 2.367 2.276h8ZM87.112 15.753H64.069v8h23.043v-8Zm-23.043 0a2.997 2.997 0 0 1 2.989 3.004h-8c0 2.813 2.297 4.996 5.01 4.996v-8Zm2.989 3.004a2.997 2.997 0 0 1-2.99 3.004v-8c-2.713 0-5.01 2.183-5.01 4.996h8Zm-2.99 3.004h23.044v-8H64.069v8Zm23.044 0c2.47 0 4.388 1.972 4.388 4.268h8c0-6.822-5.608-12.268-12.388-12.268v8Zm4.388 4.268v44.53h8v-44.53h-8Zm0 44.53a2.997 2.997 0 0 1 2.99-3.004v8c2.712 0 5.01-2.183 5.01-4.997h-8Z" fill="#FBFBFB" mask="url('#path-3-inside-2_74_157')"/><mask id="path-5-inside-3_74_157" fill="#fff"><path d="M32.134 41.368a1.02 1.02 0 0 1-.715-.291.986.986 0 0 1-.253-.991l4.287-14.088a.992.992 0 0 1 .254-.418L59.29 2.334A8.092 8.092 0 0 1 65.006 0c2.16 0 4.19.829 5.717 2.334a7.86 7.86 0 0 1 2.369 5.635 7.86 7.86 0 0 1-2.369 5.636L47.141 36.85a1.012 1.012 0 0 1-.424.25l-14.293 4.226a1.016 1.016 0 0 1-.29.042Zm5.182-14.557-3.675 12.075 12.25-3.622 23.403-23.068a5.896 5.896 0 0 0 1.776-4.227c0-1.596-.63-3.097-1.776-4.226a6.068 6.068 0 0 0-4.288-1.75c-1.62 0-3.142.621-4.287 1.75L37.316 26.811Z"/></mask><path d="M32.134 41.368a1.02 1.02 0 0 1-.715-.291.986.986 0 0 1-.253-.991l4.287-14.088a.992.992 0 0 1 .254-.418L59.29 2.334A8.092 8.092 0 0 1 65.006 0c2.16 0 4.19.829 5.717 2.334a7.86 7.86 0 0 1 2.369 5.635 7.86 7.86 0 0 1-2.369 5.636L47.141 36.85a1.012 1.012 0 0 1-.424.25l-14.293 4.226a1.016 1.016 0 0 1-.29.042Zm5.182-14.557-3.675 12.075 12.25-3.622 23.403-23.068a5.896 5.896 0 0 0 1.776-4.227c0-1.596-.63-3.097-1.776-4.226a6.068 6.068 0 0 0-4.288-1.75c-1.62 0-3.142.621-4.287 1.75L37.316 26.811Z" fill="#6D95FC"/><path d="m31.419 41.077-2.808 2.848.002.002 2.806-2.85Zm-.253-.991 3.826 1.165-3.826-1.165Zm4.287-14.088-3.826-1.165 3.826 1.165Zm.254-.418-2.808-2.849 2.808 2.849ZM59.29 2.334l2.808 2.849-2.808-2.849Zm11.433 0-2.808 2.849 2.808-2.849Zm0 11.27-2.808-2.848 2.808 2.849ZM47.141 36.85l2.808 2.849-2.808-2.849Zm-.424.25-1.13-3.837-.005.001 1.135 3.836Zm-14.293 4.226L31.29 37.49l-.008.003 1.142 3.833Zm4.892-14.515-2.808-2.849-.723.713-.296.971 3.827 1.165Zm-3.675 12.075-3.827-1.164-2.163 7.107 7.124-2.107-1.134-3.836Zm12.25-3.622 1.135 3.835.96-.284.714-.703-2.808-2.848Zm23.403-23.068 2.808 2.849-2.808-2.85Zm0-8.453-2.808 2.849 2.808-2.849Zm-8.575 0 2.808 2.849-2.808-2.849ZM32.134 37.368a2.98 2.98 0 0 1 2.091.858l-5.612 5.7a5.019 5.019 0 0 0 3.52 1.442v-8Zm2.093.86a3.014 3.014 0 0 1 .765 3.023l-7.653-2.33a4.986 4.986 0 0 0 1.272 5.004l5.616-5.697Zm.766 3.023 4.287-14.088-7.653-2.33-4.288 14.088 7.654 2.33Zm4.287-14.088c-.146.481-.41.916-.765 1.265l-5.616-5.697a4.994 4.994 0 0 0-1.272 2.102l7.653 2.33Zm-.765 1.265L62.098 5.183 56.482-.514 32.899 22.73l5.616 5.697ZM62.098 5.183A4.092 4.092 0 0 1 65.006 4v-8a12.091 12.091 0 0 0-8.524 3.486l5.616 5.697ZM65.006 4c1.118 0 2.137.421 2.91 1.183L73.53-.514A12.091 12.091 0 0 0 65.006-4v8Zm2.91 1.183a3.86 3.86 0 0 1 1.176 2.786h8a11.86 11.86 0 0 0-3.56-8.484l-5.616 5.698Zm1.176 2.786a3.86 3.86 0 0 1-1.177 2.787l5.616 5.698a11.86 11.86 0 0 0 3.56-8.485h-8Zm-1.177 2.787L44.333 34.001l5.616 5.698L73.53 16.454l-5.616-5.698ZM44.333 34.001a2.99 2.99 0 0 1 1.253-.738l2.261 7.674a5.011 5.011 0 0 0 2.102-1.238L44.333 34Zm1.25-.737L31.29 37.49l2.269 7.672 14.292-4.226-2.269-7.672Zm-14.301 4.229c.288-.086.576-.125.852-.125v8c.47 0 .953-.065 1.433-.208l-2.285-7.667Zm2.207-11.847-3.675 12.076 7.654 2.329 3.675-12.076-7.654-2.329Zm1.286 17.076L47.026 39.1l-2.269-7.671-12.25 3.623 2.268 7.671Zm13.925-4.61 23.402-23.067-5.616-5.698-23.402 23.068 5.616 5.697Zm23.403-23.068A9.896 9.896 0 0 0 75.07 7.97h-8c0 .517-.195.995-.584 1.378l5.617 5.697ZM75.07 7.97c0-2.676-1.066-5.2-2.968-7.075l-5.616 5.698c.39.383.584.86.584 1.377h8ZM72.103.895a10.068 10.068 0 0 0-7.097-2.903v8c.578 0 1.09.215 1.48.6L72.103.895Zm-7.097-2.903c-2.662 0-5.196 1.03-7.095 2.902l5.616 5.698c.39-.386.902-.6 1.48-.6v-8ZM57.911.894 34.508 23.962l5.616 5.698L63.527 6.592 57.91.894Z" fill="#6D95FC" mask="url('#path-5-inside-3_74_157')"/><mask id="path-7-inside-4_74_157" fill="#fff"><path d="M39.995 32.174a4.568 4.568 0 0 1-3.216-1.311 4.443 4.443 0 0 1 0-6.34 1.021 1.021 0 0 1 1.43 0 .986.986 0 0 1 0 1.409 2.468 2.468 0 0 0 0 3.522 2.555 2.555 0 0 0 3.572 0 1.021 1.021 0 0 1 1.43 0 .986.986 0 0 1 0 1.409 4.567 4.567 0 0 1-3.216 1.31Z"/></mask><path d="M39.995 32.174a4.568 4.568 0 0 1-3.216-1.311 4.443 4.443 0 0 1 0-6.34 1.021 1.021 0 0 1 1.43 0 .986.986 0 0 1 0 1.409 2.468 2.468 0 0 0 0 3.522 2.555 2.555 0 0 0 3.572 0 1.021 1.021 0 0 1 1.43 0 .986.986 0 0 1 0 1.409 4.567 4.567 0 0 1-3.216 1.31Z" fill="#6D95FC"/><path d="m36.779 30.863-2.808 2.848 2.808-2.848Zm0-6.34-2.808-2.849 2.808 2.85Zm1.43 0 2.807-2.849-2.808 2.85Zm3.572 4.931-2.806-2.85-.002.001 2.809 2.849Zm1.43 0 2.808-2.849h-.001l-2.807 2.849Zm0 1.409-2.807-2.85-.001.001 2.808 2.849Zm-3.216-2.69a.568.568 0 0 1-.408-.16l-5.616 5.699a8.568 8.568 0 0 0 6.024 2.462v-8Zm-.408-.159a.443.443 0 0 1 0-.642l-5.616-5.697a8.443 8.443 0 0 0 0 12.036l5.616-5.697Zm0-.642a2.979 2.979 0 0 1-4.186 0l5.614-5.698a5.021 5.021 0 0 0-7.044 0l5.616 5.698Zm-4.187 0a3.014 3.014 0 0 1 0-4.289l5.616 5.698a4.986 4.986 0 0 0 0-7.107L35.4 27.372Zm0-4.289a6.468 6.468 0 0 0 0 9.22l5.616-5.698c.604.596.604 1.58 0 2.176L35.4 23.083Zm0 9.22a6.556 6.556 0 0 0 9.19 0l-5.617-5.698a1.445 1.445 0 0 1 2.043 0L35.4 32.303Zm9.188.001a2.979 2.979 0 0 1-4.184 0l5.614-5.7a5.021 5.021 0 0 0-7.043 0l5.613 5.7Zm-4.185-.001a3.014 3.014 0 0 1 0-4.29l5.615 5.7a4.986 4.986 0 0 0 0-7.108l-5.615 5.698Zm0-4.289a.568.568 0 0 1-.408.16v8c2.16 0 4.35-.813 6.024-2.462l-5.616-5.698Z" fill="#6D95FC" mask="url('#path-7-inside-4_74_157')"/><path d="M55.763 18.48Zm-1.378-1.44Zm-.026.016Zm0 0 .005.005-.005-.005Z" fill="#6D95FC" stroke="#6D95FC" stroke-width="4"/><mask id="path-10-inside-5_74_157" fill="#fff"><path d="M67.152 16.714c-.258 0-.517-.097-.714-.291L56.433 6.56a.986.986 0 0 1 0-1.409 1.021 1.021 0 0 1 1.429 0l10.005 9.862a.986.986 0 0 1 0 1.409 1.014 1.014 0 0 1-.715.291Z"/></mask><path d="M67.152 16.714c-.258 0-.517-.097-.714-.291L56.433 6.56a.986.986 0 0 1 0-1.409 1.021 1.021 0 0 1 1.429 0l10.005 9.862a.986.986 0 0 1 0 1.409 1.014 1.014 0 0 1-.715.291Z" fill="#6D95FC"/><path d="m66.438 16.423 2.81-2.848-.002-.001-2.808 2.849ZM56.433 6.56l2.808-2.849-2.808 2.849Zm0-1.409 2.807 2.85.002-.002-2.81-2.848Zm1.429 0L55.053 8l2.809-2.848Zm10.005 9.862-2.808 2.849 2.808-2.85Zm0 1.409-2.808-2.85-.002.002 2.81 2.848Zm-.715-3.709c.74 0 1.506.28 2.095.861l-5.619 5.695a5.014 5.014 0 0 0 3.524 1.444v-8Zm2.094.86L59.24 3.712 53.625 9.41 63.63 19.27l5.616-5.697ZM59.24 3.712a3.014 3.014 0 0 1-.001 4.29l-5.614-5.7a4.986 4.986 0 0 0-.001 7.108l5.616-5.698Zm0 4.288a2.979 2.979 0 0 1-4.188 0l5.617-5.696a5.02 5.02 0 0 0-7.046 0L59.241 8Zm-4.187 0 10.005 9.863 5.616-5.698L60.67 2.303l-5.616 5.698Zm10.005 9.863a3.014 3.014 0 0 1 0-4.29l5.615 5.7a4.986 4.986 0 0 0 0-7.108l-5.615 5.698Zm-.002-4.288a2.985 2.985 0 0 1 2.095-.86v8c1.256 0 2.541-.475 3.524-1.445l-5.619-5.695Z" fill="#6D95FC" mask="url('#path-10-inside-5_74_157')"/><mask id="path-12-inside-6_74_157" fill="#fff"><path d="M70.233 61.592h-16.17c-3.344 0-6.064-2.68-6.064-5.977 0-3.295 2.72-5.977 6.064-5.977h22.234c2.229 0 4.043-1.787 4.043-3.984v-.3c0-2.198-1.814-3.986-4.043-3.986H32.134c-.558 0-1.011-.446-1.011-.996s.453-.996 1.01-.996h44.164c3.344 0 6.064 2.681 6.064 5.977v.3c0 3.296-2.72 5.978-6.064 5.978H54.063c-2.23 0-4.043 1.787-4.043 3.984s1.814 3.985 4.043 3.985h16.17c.558 0 1.01.446 1.01.996s-.452.996-1.01.996Z"/></mask><path d="M70.233 61.592h-16.17c-3.344 0-6.064-2.68-6.064-5.977 0-3.295 2.72-5.977 6.064-5.977h22.234c2.229 0 4.043-1.787 4.043-3.984v-.3c0-2.198-1.814-3.986-4.043-3.986H32.134c-.558 0-1.011-.446-1.011-.996s.453-.996 1.01-.996h44.164c3.344 0 6.064 2.681 6.064 5.977v.3c0 3.296-2.72 5.978-6.064 5.978H54.063c-2.23 0-4.043 1.787-4.043 3.984s1.814 3.985 4.043 3.985h16.17c.558 0 1.01.446 1.01.996s-.452.996-1.01.996Z" fill="#6D95FC"/><path d="M70.233 57.592h-16.17v8h16.17v-8Zm-16.17 0c-1.19 0-2.064-.944-2.064-1.977h-8c0 5.56 4.566 9.977 10.064 9.977v-8Zm-2.064-1.977c0-1.032.875-1.977 2.064-1.977v-8c-5.498 0-10.064 4.418-10.064 9.977h8Zm2.064-1.977h22.234v-8H54.063v8Zm22.234 0c4.384 0 8.043-3.524 8.043-7.984h-8l.001-.014a.089.089 0 0 1 .005-.017c.004-.008.005-.007 0-.002a.056.056 0 0 1-.028.015.107.107 0 0 1-.021.002v8Zm8.043-7.984v-.3h-8v.3h8Zm0-.3c0-4.461-3.66-7.986-8.043-7.986v8l.02.002c.005 0 .008.002.01.003a.061.061 0 0 1 .02.013c.005.005.003.005 0-.003a.091.091 0 0 1-.007-.03h8Zm-8.043-7.986H32.134v8h44.163v-8Zm-44.163 0c1.596 0 2.989 1.291 2.989 3.004h-8c0 2.813 2.298 4.996 5.01 4.996v-8Zm2.989 3.004a2.997 2.997 0 0 1-2.99 3.004v-8c-2.712 0-5.01 2.183-5.01 4.996h8Zm-2.99 3.004h44.164v-8H32.134v8Zm44.164 0c1.189 0 2.064.945 2.064 1.977h8c0-5.559-4.566-9.977-10.064-9.977v8Zm2.064 1.977v.3h8v-.3h-8Zm0 .3c0 1.033-.875 1.978-2.064 1.978v8c5.498 0 10.064-4.418 10.064-9.977h-8Zm-2.064 1.978H54.063v8h22.234v-8Zm-22.234 0c-4.384 0-8.043 3.524-8.043 7.984h8l-.001.013a.09.09 0 0 1-.006.017c-.003.009-.005.008 0 .003a.061.061 0 0 1 .03-.016l.02-.001v-8Zm-8.043 7.984c0 4.46 3.66 7.985 8.043 7.985v-8a.096.096 0 0 1-.03-.005.061.061 0 0 1-.02-.012c-.005-.005-.003-.006 0 .002a.09.09 0 0 1 .007.03h-8Zm8.043 7.985h16.17v-8h-16.17v8Zm16.17 0a2.997 2.997 0 0 1-2.99-3.004h8c0-2.813-2.297-4.996-5.01-4.996v8Zm-2.99-3.004a2.997 2.997 0 0 1 2.99-3.004v8c2.713 0 5.01-2.182 5.01-4.996h-8Z" fill="#6D95FC" mask="url('#path-12-inside-6_74_157')"/><mask id="path-14-inside-7_74_157" fill="#fff"><path d="M31.83 62.588H1.51c-.557 0-1.01-.446-1.01-.996s.453-.996 1.01-.996h30.32c.558 0 1.01.446 1.01.996s-.452.996-1.01.996Z"/></mask><path d="M31.83 62.588H1.51c-.557 0-1.01-.446-1.01-.996s.453-.996 1.01-.996h30.32c.558 0 1.01.446 1.01.996s-.452.996-1.01.996Z" fill="#6D95FC"/><path d="M31.83 58.588H1.51v8h30.32v-8Zm-30.32 0c1.597 0 2.99 1.29 2.99 3.004h-8c0 2.814 2.298 4.996 5.01 4.996v-8Zm2.99 3.004a2.997 2.997 0 0 1-2.99 3.004v-8c-2.712 0-5.01 2.182-5.01 4.996h8Zm-2.99 3.004h30.32v-8H1.51v8Zm30.32 0a2.997 2.997 0 0 1-2.99-3.004h8c0-2.814-2.298-4.996-5.01-4.996v8Zm-2.99-3.004a2.997 2.997 0 0 1 2.99-3.004v8c2.712 0 5.01-2.182 5.01-4.996h-8Z" fill="#FBFBFB" mask="url('#path-14-inside-7_74_157')"/><mask id="path-16-inside-8_74_157" fill="#fff"><path d="M31.83 56.611H1.51c-.557 0-1.01-.445-1.01-.996 0-.55.453-.996 1.01-.996h30.32c.558 0 1.01.446 1.01.996s-.452.996-1.01.996Z"/></mask><path d="M31.83 56.611H1.51c-.557 0-1.01-.445-1.01-.996 0-.55.453-.996 1.01-.996h30.32c.558 0 1.01.446 1.01.996s-.452.996-1.01.996Z" fill="#6D95FC"/><path d="M31.83 52.611H1.51v8h30.32v-8Zm-30.32 0c1.597 0 2.99 1.29 2.99 3.004h-8c0 2.814 2.298 4.996 5.01 4.996v-8Zm2.99 3.004a2.997 2.997 0 0 1-2.99 3.004v-8c-2.712 0-5.01 2.182-5.01 4.996h8ZM1.51 58.62h30.32v-8H1.51v8Zm30.32 0a2.997 2.997 0 0 1-2.99-3.004h8c0-2.814-2.298-4.996-5.01-4.996v8Zm-2.99-3.004a2.997 2.997 0 0 1 2.99-3.004v8c2.712 0 5.01-2.182 5.01-4.996h-8Z" fill="#FBFBFB" mask="url('#path-16-inside-8_74_157')"/><mask id="path-18-inside-9_74_157" fill="#fff"><path d="M31.83 50.635H1.51c-.557 0-1.01-.446-1.01-.996s.453-.996 1.01-.996h30.32c.558 0 1.01.446 1.01.996s-.452.996-1.01.996Z"/></mask><path d="M31.83 50.635H1.51c-.557 0-1.01-.446-1.01-.996s.453-.996 1.01-.996h30.32c.558 0 1.01.446 1.01.996s-.452.996-1.01.996Z" fill="#6D95FC"/><path d="M31.83 46.635H1.51v8h30.32v-8Zm-30.32 0c1.597 0 2.99 1.29 2.99 3.004h-8c0 2.814 2.298 4.996 5.01 4.996v-8Zm2.99 3.004a2.997 2.997 0 0 1-2.99 3.004v-8c-2.712 0-5.01 2.182-5.01 4.996h8Zm-2.99 3.004h30.32v-8H1.51v8Zm30.32 0a2.997 2.997 0 0 1-2.99-3.004h8c0-2.814-2.298-4.996-5.01-4.996v8Zm-2.99-3.004a2.997 2.997 0 0 1 2.99-3.004v8c2.712 0 5.01-2.182 5.01-4.996h-8Z" fill="#FBFBFB" mask="url('#path-18-inside-9_74_157')"/><mask id="path-20-inside-10_74_157" fill="#fff"><path d="M59.118 95.462H36.884c-.558 0-1.011-.446-1.011-.996V82.512c0-.55.453-.996 1.01-.996h22.235c.558 0 1.01.445 1.01.996v11.954c0 .55-.452.996-1.01.996ZM37.894 93.47h20.213v-9.962H37.894v9.962Z"/></mask><path d="M59.118 95.462H36.884c-.558 0-1.011-.446-1.011-.996V82.512c0-.55.453-.996 1.01-.996h22.235c.558 0 1.01.445 1.01.996v11.954c0 .55-.452.996-1.01.996ZM37.894 93.47h20.213v-9.962H37.894v9.962Z" fill="#6D95FC"/><path d="M37.894 93.47h-4v4h4v-4Zm20.213 0v4h4v-4h-4Zm0-9.962h4v-4h-4v4Zm-20.213 0v-4h-4v4h4Zm21.224 7.954H36.884v8h22.234v-8Zm-22.234 0c1.596 0 2.989 1.29 2.989 3.004h-8c0 2.814 2.299 4.996 5.01 4.996v-8Zm2.989 3.004V82.512h-8v11.954h8Zm0-11.954a2.997 2.997 0 0 1-2.99 3.004v-8c-2.712 0-5.01 2.182-5.01 4.996h8Zm-2.99 3.004h22.235v-8H36.884v8Zm22.235 0a2.997 2.997 0 0 1-2.99-3.004h8c0-2.814-2.297-4.996-5.01-4.996v8Zm-2.99-3.004v11.954h8V82.512h-8Zm0 11.954a2.997 2.997 0 0 1 2.99-3.004v8c2.713 0 5.01-2.182 5.01-4.996h-8ZM37.894 97.47h20.213v-8H37.894v8Zm24.213-4v-9.962h-8v9.962h8Zm-4-13.962H37.894v8h20.213v-8Zm-24.213 4v9.962h8v-9.962h-8Z" fill="#FBFBFB" mask="url('#path-20-inside-10_74_157')"/><mask id="path-22-inside-11_74_157" fill="#fff"><path d="M54.064 95.462H41.936c-.558 0-1.01-.446-1.01-.996V82.512c0-.55.452-.996 1.01-.996h12.128c.558 0 1.01.445 1.01.996v11.954c0 .55-.452.996-1.01.996ZM42.947 93.47h10.106v-9.962H42.947v9.962Z"/></mask><path d="M54.064 95.462H41.936c-.558 0-1.01-.446-1.01-.996V82.512c0-.55.452-.996 1.01-.996h12.128c.558 0 1.01.445 1.01.996v11.954c0 .55-.452.996-1.01.996ZM42.947 93.47h10.106v-9.962H42.947v9.962Z" fill="#6D95FC"/><path d="M42.947 93.47h-4v4h4v-4Zm10.106 0v4h4v-4h-4Zm0-9.962h4v-4h-4v4Zm-10.106 0v-4h-4v4h4Zm11.117 7.954H41.936v8h12.128v-8Zm-12.128 0c1.596 0 2.99 1.29 2.99 3.004h-8c0 2.814 2.298 4.996 5.01 4.996v-8Zm2.99 3.004V82.512h-8v11.954h8Zm0-11.954a2.997 2.997 0 0 1-2.99 3.004v-8c-2.712 0-5.01 2.182-5.01 4.996h8Zm-2.99 3.004h12.128v-8H41.936v8Zm12.128 0a2.997 2.997 0 0 1-2.99-3.004h8c0-2.814-2.297-4.996-5.01-4.996v8Zm-2.99-3.004v11.954h8V82.512h-8Zm0 11.954a2.997 2.997 0 0 1 2.99-3.004v8c2.713 0 5.01-2.182 5.01-4.996h-8Zm-8.127 3.004h10.106v-8H42.947v8Zm14.106-4v-9.962h-8v9.962h8Zm-4-13.962H42.947v8h10.106v-8Zm-14.106 4v9.962h8v-9.962h-8Z" fill="#FBFBFB" mask="url('#path-22-inside-11_74_157')"/><mask id="path-24-inside-12_74_157" fill="#fff"><path d="M62.148 99.447H33.85c-1.672 0-3.032-1.34-3.032-2.989 0-1.648 1.36-2.988 3.032-2.988h28.298c1.672 0 3.032 1.34 3.032 2.988s-1.36 2.989-3.032 2.989ZM33.85 95.462c-.557 0-1.01.447-1.01.996 0 .55.453.996 1.01.996h28.298c.557 0 1.01-.446 1.01-.996 0-.549-.453-.996-1.01-.996H33.85Z"/></mask><path d="M62.148 99.447H33.85c-1.672 0-3.032-1.34-3.032-2.989 0-1.648 1.36-2.988 3.032-2.988h28.298c1.672 0 3.032 1.34 3.032 2.988s-1.36 2.989-3.032 2.989ZM33.85 95.462c-.557 0-1.01.447-1.01.996 0 .55.453.996 1.01.996h28.298c.557 0 1.01-.446 1.01-.996 0-.549-.453-.996-1.01-.996H33.85Z" fill="#6D95FC"/><path d="M62.148 95.447H33.85v8h28.298v-8Zm-28.298 0c.483 0 .968.396.968 1.011h-8c0 3.911 3.206 6.989 7.032 6.989v-8Zm.968 1.011a.987.987 0 0 1-.968 1.012v-8c-3.826 0-7.032 3.077-7.032 6.988h8Zm-.968 1.012h28.298v-8H33.85v8Zm28.298 0a.987.987 0 0 1-.968-1.012h8c0-3.91-3.205-6.988-7.032-6.988v8Zm-.968-1.012a.987.987 0 0 1 .968-1.011v8c3.827 0 7.032-3.078 7.032-6.989h-8Zm-27.33-4.996c-2.712 0-5.01 2.184-5.01 4.996h8a2.995 2.995 0 0 1-2.99 3.004v-8Zm-5.01 4.996c0 2.813 2.298 4.996 5.01 4.996v-8c1.598 0 2.99 1.29 2.99 3.004h-8Zm5.01 4.996h28.298v-8H33.85v8Zm28.298 0c2.712 0 5.01-2.183 5.01-4.996h-8a2.995 2.995 0 0 1 2.99-3.004v8Zm5.01-4.996c0-2.812-2.298-4.996-5.01-4.996v8a2.995 2.995 0 0 1-2.99-3.004h8Zm-5.01-4.996H33.85v8h28.298v-8Z" fill="#FBFBFB" mask="url('#path-24-inside-12_74_157')"/></svg>