<svg width="35" height="34" fill="none" xmlns="http://www.w3.org/2000/svg"><path d="M7.039 14.489c2.8 5.263 7.311 9.578 12.814 12.256l4.278-4.091a2.014 2.014 0 0 1 1.983-.465 23.007 23.007 0 0 0 6.942 1.06c.515 0 1.01.196 1.375.545.364.348.569.821.569 1.315v6.51c0 .493-.205.966-.57 1.315a1.99 1.99 0 0 1-1.374.544c-8.767 0-17.175-3.331-23.374-9.26C3.482 18.288 0 10.246 0 1.86 0 1.367.205.894.57.545A1.99 1.99 0 0 1 1.944 0H8.75c.516 0 1.01.196 1.375.545.365.349.57.822.57 1.315 0 2.325.388 4.557 1.108 6.64a1.81 1.81 0 0 1-.486 1.897l-4.278 4.092Z" fill="#6D95FC"/></svg>