<svg width="90" height="94" fill="none" xmlns="http://www.w3.org/2000/svg"><g clip-path="url('#clip0_76_650')"><path d="M18.357 74.29c0-5.595 4.356-10.112 9.662-10.112 5.305 0 9.661 4.517 9.661 10.113 0 5.595-4.356 10.112-9.661 10.112-5.306 0-9.662-4.517-9.662-10.112Zm1.904 0c0 4.436 3.459 8.081 7.758 8.081 4.298 0 7.758-3.645 7.758-8.08 0-4.436-3.46-8.081-7.758-8.081-4.299 0-7.758 3.645-7.758 8.08Z" fill="#6D95FC" stroke="#000"/><path d="M24.164 74.29c0-2.252 1.75-4.048 3.855-4.048s3.855 1.796 3.855 4.049c0 2.252-1.75 4.048-3.855 4.048s-3.855-1.796-3.855-4.048Zm1.903 0c0 1.093.855 2.017 1.952 2.017s1.952-.924 1.952-2.016-.855-2.017-1.952-2.017-1.952.925-1.952 2.017Z" fill="#6D95FC" stroke="#000"/><mask id="path-4-inside-1_76_650" fill="#fff"><path d="m88.137 70.821-10.5-4.111h-1.716V54.05c3.378-1.252 5.807-4.613 5.807-8.566v-2.32c0-1.83.817-3.569 2.241-4.773 4.11-3.475 6.469-8.625 6.469-14.133 0-5.17-2.118-10.114-5.812-13.563a17.107 17.107 0 0 0-8.705-4.345V4.548C75.921 2.041 73.968 0 71.566 0H4.793C2.392 0 .438 2.04.438 4.548v66.71c0 2.508 1.953 4.548 4.354 4.548h4.416c.267 1.695 1.41 3.12 3.01 3.668.44.152.782.48.94.905.075.2.15.397.234.593.17.412.15.896-.055 1.324-.873 1.801-.54 3.969.826 5.4l1.023 1.07c1.366 1.425 3.442 1.772 5.168.86a1.44 1.44 0 0 1 1.27-.056c.186.085.374.164.567.242.405.166.72.523.866.981.6 1.918 2.305 3.207 4.238 3.207h1.445c1.934 0 3.638-1.29 4.24-3.207.146-.46.46-.816.867-.98.192-.08.38-.158.568-.245a1.444 1.444 0 0 1 1.267.058c1.725.91 3.802.562 5.17-.864l1.024-1.068c1.365-1.428 1.698-3.598.825-5.397-.066-.137-.08-.282-.108-.425h35.045l10.5-4.113c1.374-.541 2.299-1.934 2.299-3.469 0-1.534-.925-2.927-2.3-3.469Zm-41.309 1.953a4.677 4.677 0 0 0-1.814-3.032H75.92v3.032H46.828Zm0 3.032h29.094v3.033H45.015a4.667 4.667 0 0 0 1.815-3.033h-.002Zm26.19-24.258c-3.201 0-5.806-2.72-5.806-6.064h11.613c0 3.344-2.604 6.064-5.806 6.064Zm-.965-22.742h1.93l-.872 13.646h-.187l-.871-13.646Zm15.482-4.548c0 4.588-1.966 8.88-5.391 11.776a9.318 9.318 0 0 0-3.28 6.418H76.02l.871-13.646h1.933c2.4 0 4.355-2.04 4.355-4.548s-1.954-4.548-4.355-4.548h-.187c-2.285 0-4.196 1.864-4.345 4.246l-.116 1.818H71.86l-.116-1.816c-.15-2.384-2.06-4.248-4.345-4.248h-.187c-2.401 0-4.355 2.04-4.355 4.548s1.954 4.548 4.355 4.548h1.932l.87 13.646h-2.843c-.196-2.472-1.382-4.8-3.34-6.473-4.024-3.438-5.95-8.726-5.149-14.144.973-6.583 6.296-11.899 12.66-12.64a14.623 14.623 0 0 1 1.697-.098c3.58 0 6.957 1.339 9.653 3.857 3.078 2.875 4.843 6.995 4.843 11.304Zm-10.447 1.516.103-1.617c.049-.794.686-1.415 1.447-1.415h.187c.8 0 1.452.68 1.452 1.516 0 .837-.651 1.516-1.452 1.516h-1.737Zm-8.139 0h-1.737c-.801 0-1.452-.68-1.452-1.516s.651-1.516 1.452-1.516h.187c.761 0 1.398.621 1.447 1.416l.103 1.616ZM38.18 24.258h-4.355c-1.486 0-2.8.785-3.585 1.976-1.225-1.217-2.872-1.976-4.69-1.976h-.397a6.6 6.6 0 0 0-3.511 1.016l-6.688 4.19v3.104l6.331 5.288a6.663 6.663 0 0 0 4.265 1.563c1.819 0 3.465-.759 4.69-1.975.785 1.19 2.099 1.975 3.585 1.975h4.355v3.033H9.148V21.226H38.18v3.032Zm-12.63 12.13a3.823 3.823 0 0 1-2.45-.9l-5.195-4.338 5.229-3.276a3.807 3.807 0 0 1 2.018-.584h.396c2.163 0 3.923 1.838 3.923 4.095v.907c0 2.258-1.76 4.095-3.921 4.095Zm8.275 0c-.8 0-1.451-.68-1.451-1.517v-6.065c0-.836.65-1.516 1.451-1.516h22.052c.541 3.38 1.968 6.521 4.193 9.097H33.825ZM4.793 3.031h66.774c.801 0 1.452.68 1.452 1.516v1.527c-.665-.001-1.333.03-2 .107-4.268.496-8.145 2.712-10.942 5.947H38.181V6.064h-8.71v6.065h-2.903V6.064h-8.71v6.065h-2.903V6.064h-8.71v6.065H3.342v-7.58c0-.837.65-1.517 1.451-1.517Zm30.484 9.097h-2.903V9.097h2.903v3.032Zm-11.613 0h-2.903V9.097h2.903v3.032Zm-11.613 0H9.148V9.097h2.903v3.032Zm-8.71 59.129V15.161h54.62a18.065 18.065 0 0 0-2.146 6.214 19.55 19.55 0 0 0-.19 2.883H41.084v-6.064H6.245v27.29h34.839v-6.065h21.932c.83 1.1 1.295 2.41 1.295 3.754v2.31c0 5.018 3.906 9.098 8.71 9.098V66.71H42.593c.028-.143.043-.289.108-.423.872-1.802.54-3.97-.826-5.4l-1.023-1.068c-1.365-1.428-3.444-1.78-5.168-.863a1.429 1.429 0 0 1-1.27.056 15.125 15.125 0 0 0-.568-.242c-.405-.166-.72-.524-.865-.981-.601-1.92-2.305-3.208-4.239-3.208h-1.445c-1.934 0-3.638 1.29-4.24 3.206-.146.46-.46.816-.867.981-.192.079-.38.158-.568.245a1.444 1.444 0 0 1-1.267-.058c-1.725-.91-3.803-.562-5.17.863l-1.024 1.069c-1.365 1.428-1.698 3.598-.825 5.397.208.429.226.912.054 1.326-.08.195-.157.392-.232.593-.158.423-.5.752-.939.904-1.602.548-2.744 1.972-3.01 3.667H4.794c-.8 0-1.451-.68-1.451-1.516H3.34Zm36.833 8.019c-.06.163-.126.326-.191.485a4.767 4.767 0 0 0 .126 3.9c.304.629.188 1.387-.288 1.886l-1.023 1.067a1.509 1.509 0 0 1-1.808.302c-1.18-.624-2.543-.672-3.73-.133-.154.07-.31.138-.465.201-1.218.494-2.154 1.54-2.57 2.863-.212.67-.808 1.12-1.484 1.12h-1.445c-.677 0-1.272-.45-1.482-1.122-.417-1.322-1.355-2.365-2.571-2.86a13.994 13.994 0 0 1-.465-.2 4.167 4.167 0 0 0-1.722-.373c-.687 0-1.374.168-2.013.505a1.51 1.51 0 0 1-1.806-.3l-1.022-1.07a1.681 1.681 0 0 1-.29-1.888 4.766 4.766 0 0 0 .128-3.896 14.84 14.84 0 0 1-.193-.485 4.471 4.471 0 0 0-2.74-2.685c-.639-.22-1.07-.842-1.07-1.548v-1.51c0-.707.431-1.328 1.075-1.548a4.476 4.476 0 0 0 2.738-2.685c.06-.164.126-.326.192-.486a4.767 4.767 0 0 0-.127-3.899 1.682 1.682 0 0 1 .288-1.886l1.023-1.069a1.513 1.513 0 0 1 1.808-.3c1.181.623 2.546.673 3.73.133.154-.07.31-.138.465-.202 1.218-.494 2.154-1.54 2.57-2.862.211-.67.807-1.12 1.483-1.12h1.446c.676 0 1.271.45 1.482 1.123.417 1.322 1.354 2.365 2.57 2.86.157.063.313.132.465.2 1.19.54 2.55.491 3.734-.132a1.507 1.507 0 0 1 1.806.3l1.022 1.07c.477.498.593 1.256.289 1.887a4.766 4.766 0 0 0-.128 3.897c.067.16.132.323.193.485a4.472 4.472 0 0 0 2.74 2.685c.641.22 1.072.842 1.072 1.548v1.51c0 .707-.43 1.328-1.074 1.548a4.47 4.47 0 0 0-2.738 2.683Zm46.943-4.357-8.292 3.247v-7.753l8.292 3.246c.25.098.418.351.418.63a.675.675 0 0 1-.418.63Z"/></mask><path d="m88.137 70.821-10.5-4.111h-1.716V54.05c3.378-1.252 5.807-4.613 5.807-8.566v-2.32c0-1.83.817-3.569 2.241-4.773 4.11-3.475 6.469-8.625 6.469-14.133 0-5.17-2.118-10.114-5.812-13.563a17.107 17.107 0 0 0-8.705-4.345V4.548C75.921 2.041 73.968 0 71.566 0H4.793C2.392 0 .438 2.04.438 4.548v66.71c0 2.508 1.953 4.548 4.354 4.548h4.416c.267 1.695 1.41 3.12 3.01 3.668.44.152.782.48.94.905.075.2.15.397.234.593.17.412.15.896-.055 1.324-.873 1.801-.54 3.969.826 5.4l1.023 1.07c1.366 1.425 3.442 1.772 5.168.86a1.44 1.44 0 0 1 1.27-.056c.186.085.374.164.567.242.405.166.72.523.866.981.6 1.918 2.305 3.207 4.238 3.207h1.445c1.934 0 3.638-1.29 4.24-3.207.146-.46.46-.816.867-.98.192-.08.38-.158.568-.245a1.444 1.444 0 0 1 1.267.058c1.725.91 3.802.562 5.17-.864l1.024-1.068c1.365-1.428 1.698-3.598.825-5.397-.066-.137-.08-.282-.108-.425h35.045l10.5-4.113c1.374-.541 2.299-1.934 2.299-3.469 0-1.534-.925-2.927-2.3-3.469Zm-41.309 1.953a4.677 4.677 0 0 0-1.814-3.032H75.92v3.032H46.828Zm0 3.032h29.094v3.033H45.015a4.667 4.667 0 0 0 1.815-3.033h-.002Zm26.19-24.258c-3.201 0-5.806-2.72-5.806-6.064h11.613c0 3.344-2.604 6.064-5.806 6.064Zm-.965-22.742h1.93l-.872 13.646h-.187l-.871-13.646Zm15.482-4.548c0 4.588-1.966 8.88-5.391 11.776a9.318 9.318 0 0 0-3.28 6.418H76.02l.871-13.646h1.933c2.4 0 4.355-2.04 4.355-4.548s-1.954-4.548-4.355-4.548h-.187c-2.285 0-4.196 1.864-4.345 4.246l-.116 1.818H71.86l-.116-1.816c-.15-2.384-2.06-4.248-4.345-4.248h-.187c-2.401 0-4.355 2.04-4.355 4.548s1.954 4.548 4.355 4.548h1.932l.87 13.646h-2.843c-.196-2.472-1.382-4.8-3.34-6.473-4.024-3.438-5.95-8.726-5.149-14.144.973-6.583 6.296-11.899 12.66-12.64a14.623 14.623 0 0 1 1.697-.098c3.58 0 6.957 1.339 9.653 3.857 3.078 2.875 4.843 6.995 4.843 11.304Zm-10.447 1.516.103-1.617c.049-.794.686-1.415 1.447-1.415h.187c.8 0 1.452.68 1.452 1.516 0 .837-.651 1.516-1.452 1.516h-1.737Zm-8.139 0h-1.737c-.801 0-1.452-.68-1.452-1.516s.651-1.516 1.452-1.516h.187c.761 0 1.398.621 1.447 1.416l.103 1.616ZM38.18 24.258h-4.355c-1.486 0-2.8.785-3.585 1.976-1.225-1.217-2.872-1.976-4.69-1.976h-.397a6.6 6.6 0 0 0-3.511 1.016l-6.688 4.19v3.104l6.331 5.288a6.663 6.663 0 0 0 4.265 1.563c1.819 0 3.465-.759 4.69-1.975.785 1.19 2.099 1.975 3.585 1.975h4.355v3.033H9.148V21.226H38.18v3.032Zm-12.63 12.13a3.823 3.823 0 0 1-2.45-.9l-5.195-4.338 5.229-3.276a3.807 3.807 0 0 1 2.018-.584h.396c2.163 0 3.923 1.838 3.923 4.095v.907c0 2.258-1.76 4.095-3.921 4.095Zm8.275 0c-.8 0-1.451-.68-1.451-1.517v-6.065c0-.836.65-1.516 1.451-1.516h22.052c.541 3.38 1.968 6.521 4.193 9.097H33.825ZM4.793 3.031h66.774c.801 0 1.452.68 1.452 1.516v1.527c-.665-.001-1.333.03-2 .107-4.268.496-8.145 2.712-10.942 5.947H38.181V6.064h-8.71v6.065h-2.903V6.064h-8.71v6.065h-2.903V6.064h-8.71v6.065H3.342v-7.58c0-.837.65-1.517 1.451-1.517Zm30.484 9.097h-2.903V9.097h2.903v3.032Zm-11.613 0h-2.903V9.097h2.903v3.032Zm-11.613 0H9.148V9.097h2.903v3.032Zm-8.71 59.129V15.161h54.62a18.065 18.065 0 0 0-2.146 6.214 19.55 19.55 0 0 0-.19 2.883H41.084v-6.064H6.245v27.29h34.839v-6.065h21.932c.83 1.1 1.295 2.41 1.295 3.754v2.31c0 5.018 3.906 9.098 8.71 9.098V66.71H42.593c.028-.143.043-.289.108-.423.872-1.802.54-3.97-.826-5.4l-1.023-1.068c-1.365-1.428-3.444-1.78-5.168-.863a1.429 1.429 0 0 1-1.27.056 15.125 15.125 0 0 0-.568-.242c-.405-.166-.72-.524-.865-.981-.601-1.92-2.305-3.208-4.239-3.208h-1.445c-1.934 0-3.638 1.29-4.24 3.206-.146.46-.46.816-.867.981-.192.079-.38.158-.568.245a1.444 1.444 0 0 1-1.267-.058c-1.725-.91-3.803-.562-5.17.863l-1.024 1.069c-1.365 1.428-1.698 3.598-.825 5.397.208.429.226.912.054 1.326-.08.195-.157.392-.232.593-.158.423-.5.752-.939.904-1.602.548-2.744 1.972-3.01 3.667H4.794c-.8 0-1.451-.68-1.451-1.516H3.34Zm36.833 8.019c-.06.163-.126.326-.191.485a4.767 4.767 0 0 0 .126 3.9c.304.629.188 1.387-.288 1.886l-1.023 1.067a1.509 1.509 0 0 1-1.808.302c-1.18-.624-2.543-.672-3.73-.133-.154.07-.31.138-.465.201-1.218.494-2.154 1.54-2.57 2.863-.212.67-.808 1.12-1.484 1.12h-1.445c-.677 0-1.272-.45-1.482-1.122-.417-1.322-1.355-2.365-2.571-2.86a13.994 13.994 0 0 1-.465-.2 4.167 4.167 0 0 0-1.722-.373c-.687 0-1.374.168-2.013.505a1.51 1.51 0 0 1-1.806-.3l-1.022-1.07a1.681 1.681 0 0 1-.29-1.888 4.766 4.766 0 0 0 .128-3.896 14.84 14.84 0 0 1-.193-.485 4.471 4.471 0 0 0-2.74-2.685c-.639-.22-1.07-.842-1.07-1.548v-1.51c0-.707.431-1.328 1.075-1.548a4.476 4.476 0 0 0 2.738-2.685c.06-.164.126-.326.192-.486a4.767 4.767 0 0 0-.127-3.899 1.682 1.682 0 0 1 .288-1.886l1.023-1.069a1.513 1.513 0 0 1 1.808-.3c1.181.623 2.546.673 3.73.133.154-.07.31-.138.465-.202 1.218-.494 2.154-1.54 2.57-2.862.211-.67.807-1.12 1.483-1.12h1.446c.676 0 1.271.45 1.482 1.123.417 1.322 1.354 2.365 2.57 2.86.157.063.313.132.465.2 1.19.54 2.55.491 3.734-.132a1.507 1.507 0 0 1 1.806.3l1.022 1.07c.477.498.593 1.256.289 1.887a4.766 4.766 0 0 0-.128 3.897c.067.16.132.323.193.485a4.472 4.472 0 0 0 2.74 2.685c.641.22 1.072.842 1.072 1.548v1.51c0 .707-.43 1.328-1.074 1.548a4.47 4.47 0 0 0-2.738 2.683Zm46.943-4.357-8.292 3.247v-7.753l8.292 3.246c.25.098.418.351.418.63a.675.675 0 0 1-.418.63Z" fill="#fff" stroke="#000" stroke-width="2" mask="url('#path-4-inside-1_76_650')"/><path d="M44.486 42.951h16.42v2.032h-16.42v-2.032ZM44.486 49.017h16.42v2.032h-16.42v-2.032ZM44.486 55.081h16.42v2.032h-16.42v-2.032ZM53.195 61.145H55.1v2.033h-1.904v-2.032ZM59.002 61.145h1.903v2.033h-1.903v-2.032ZM47.389 61.145h1.903v2.033h-1.903v-2.032Z" fill="#6D95FC" stroke="#000"/></g><path stroke="#000" d="M0 0h90v94H0z"/><defs><clipPath id="clip0_76_650"><path fill="#fff" d="M0 0h90v94H0z"/></clipPath></defs></svg>